# xmcd
#
# Track frame offsets: 
#        150
#        54327
#        83066
#        130203
#        151237
#        211543
#        248572
#
# Disc length: 3594 seconds
#
# Revision: 1
# Processed by: cddbd v1.5.2PL0 Copyright (c) Steve Scherf et al.
# Submitted via: ExactAudioCopy v1.0b6
#
DISCID=490e0807
DTITLE=Erik Berglunt - The Seven Sacrid Flames
DYEAR=2007
DGENRE=Meditative
TTITLE0=tSSF1 The Flame of Will of God and Divine Power
TTITLE1=tSSF2 The Flame of Illumination and Wisdom
TTITLE2=tSSF3 The Eternal Flame of Cosmic Love
TTITLE3=tSSF4 The Flame of Purification and Immortality
TTITLE4=tSSF5 The Flame of Healing and Manifestation
TTITLE5=tSSF6 The Flame of Resurrection and Transfiguration
TTITLE6=tSSF7 The Flame of Transmutation and Freedom
EXTD=YEAR: 2007
EXTT0=
EXTT1=
EXTT2=
EXTT3=
EXTT4=
EXTT5=
EXTT6=
PLAYORDER=
